<svg xmlns="http://www.w3.org/2000/svg" viewBox="0 0 1000 625" role="img" aria-labelledby="title desc">
  <title id="title">Future STEM careers and innovation</title>
  <desc id="desc">Young STEM professionals viewing connected technology, AI, engineering, data, and renewable energy icons.</desc>
  <defs>
    <linearGradient id="bg" x1="0" y1="0" x2="1" y2="1"><stop offset="0" stop-color="#17324d"/><stop offset="1" stop-color="#29ABE2"/></linearGradient>
    <filter id="shadow" x="-20%" y="-20%" width="140%" height="140%"><feDropShadow dx="0" dy="16" stdDeviation="14" flood-color="#061626" flood-opacity=".22"/></filter>
  </defs>
  <rect width="1000" height="625" fill="url(#bg)"/>
  <circle cx="840" cy="86" r="128" fill="#5CBF2A" opacity=".2"/>
  <circle cx="118" cy="535" r="170" fill="#F5C518" opacity=".22"/>
  <g stroke="#fff" stroke-width="5" opacity=".32" fill="none">
    <path d="M180 175h190l120 116h160l146-104"/>
    <path d="M232 438h154l119-106h213"/>
  </g>
  <g filter="url(#shadow)">
    <rect x="305" y="105" width="390" height="280" rx="34" fill="#fff"/>
    <path d="M344 322h312" stroke="#d9f1ff" stroke-width="18" stroke-linecap="round"/>
    <path d="M380 278l54-66 57 35 73-102 62 72" fill="none" stroke="#5CBF2A" stroke-width="18" stroke-linecap="round" stroke-linejoin="round"/>
    <circle cx="430" cy="188" r="38" fill="#F5C518"/>
    <rect x="445" y="385" width="110" height="72" rx="12" fill="#17324d"/>
    <path d="M372 457h256" stroke="#fff" stroke-width="20" stroke-linecap="round"/>
    <circle cx="183" cy="185" r="58" fill="#fff"/>
    <path d="M159 188h48M183 164v48" stroke="#E8312A" stroke-width="15" stroke-linecap="round"/>
    <circle cx="797" cy="188" r="62" fill="#fff"/>
    <path d="M768 191h59M798 160v63" stroke="#5CBF2A" stroke-width="14" stroke-linecap="round"/>
    <path d="M828 224c-16 16-43 16-60 0" stroke="#17324d" stroke-width="12" stroke-linecap="round"/>
    <circle cx="250" cy="438" r="72" fill="#fff"/>
    <path d="M216 438h68M250 404v68" stroke="#29ABE2" stroke-width="17" stroke-linecap="round"/>
    <circle cx="758" cy="452" r="76" fill="#fff"/>
    <path d="M730 478h56l-28-82z" fill="#F5C518"/>
    <path d="M714 478h88" stroke="#17324d" stroke-width="13" stroke-linecap="round"/>
    <path d="M378 554c16-61 65-92 112-92s96 31 112 92" fill="#d9f1ff"/>
    <circle cx="490" cy="430" r="49" fill="#c38b68"/>
    <path d="M232 557c13-51 55-77 95-77s82 26 95 77" fill="#fff4bf"/>
    <circle cx="327" cy="452" r="43" fill="#f0b18d"/>
  </g>
</svg>
