<svg xmlns="http://www.w3.org/2000/svg" viewBox="0 0 1000 750" role="img" aria-labelledby="title desc">
  <title id="title">Robotics and mechanical engineering workshop</title>
  <desc id="desc">A bright robotics workbench with a robot arm, gears, tools, and engineering plans.</desc>
  <defs>
    <linearGradient id="bg" x1="0" y1="0" x2="1" y2="1"><stop offset="0" stop-color="#fff4bf"/><stop offset="1" stop-color="#d9f1ff"/></linearGradient>
    <filter id="shadow" x="-20%" y="-20%" width="140%" height="140%"><feDropShadow dx="0" dy="20" stdDeviation="18" flood-color="#17324d" flood-opacity=".18"/></filter>
  </defs>
  <rect width="1000" height="750" fill="url(#bg)"/>
  <circle cx="150" cy="120" r="96" fill="#E8312A" opacity=".14"/>
  <circle cx="855" cy="635" r="150" fill="#5CBF2A" opacity=".15"/>
  <g filter="url(#shadow)">
    <rect x="105" y="525" width="790" height="72" rx="22" fill="#17324d"/>
    <rect x="145" y="445" width="250" height="116" rx="22" fill="#fff"/>
    <path d="M176 486h188M176 523h130" stroke="#29ABE2" stroke-width="18" stroke-linecap="round"/>
    <circle cx="620" cy="205" r="58" fill="#29ABE2"/>
    <circle cx="620" cy="205" r="24" fill="#fff"/>
    <path d="M590 255 475 372" stroke="#17324d" stroke-width="44" stroke-linecap="round"/>
    <circle cx="462" cy="386" r="54" fill="#F5C518"/>
    <circle cx="462" cy="386" r="20" fill="#fff"/>
    <path d="M501 425 618 520" stroke="#17324d" stroke-width="42" stroke-linecap="round"/>
    <path d="M641 491h98c28 0 51 23 51 51v18H623v-50c0-10 8-19 18-19z" fill="#E8312A"/>
    <path d="M709 490v-52c0-28 22-50 50-50h19" stroke="#17324d" stroke-width="26" stroke-linecap="round"/>
    <path d="M778 357v64M813 371l-35 28-35-28" stroke="#5CBF2A" stroke-width="20" stroke-linecap="round" stroke-linejoin="round"/>
    <g transform="translate(232 242)">
      <circle r="72" fill="#fff"/>
      <circle r="35" fill="#d9f1ff" stroke="#29ABE2" stroke-width="14"/>
      <path d="M0-96v44M0 52v44M-96 0h44M52 0h44M-68-68l31 31M37 37l31 31M68-68 37-37M-37 37l-31 31" stroke="#17324d" stroke-width="16" stroke-linecap="round"/>
    </g>
    <path d="M170 646h660" stroke="#5CBF2A" stroke-width="20" stroke-linecap="round"/>
  </g>
</svg>
