<svg xmlns="http://www.w3.org/2000/svg" viewBox="0 0 900 675" role="img" aria-labelledby="title desc">
  <title id="title">Students collaborating on STEM learning</title>
  <desc id="desc">A colorful classroom scene with students, a laptop, science glassware, gears, and a light bulb.</desc>
  <defs>
    <linearGradient id="bg" x1="0" y1="0" x2="1" y2="1">
      <stop offset="0" stop-color="#d9f1ff"/>
      <stop offset="1" stop-color="#fff4bf"/>
    </linearGradient>
    <filter id="shadow" x="-20%" y="-20%" width="140%" height="140%">
      <feDropShadow dx="0" dy="18" stdDeviation="18" flood-color="#0d4f80" flood-opacity=".16"/>
    </filter>
  </defs>
  <rect width="900" height="675" fill="url(#bg)"/>
  <circle cx="765" cy="92" r="88" fill="#5CBF2A" opacity=".18"/>
  <circle cx="96" cy="574" r="130" fill="#29ABE2" opacity=".16"/>
  <g filter="url(#shadow)">
    <rect x="110" y="138" width="680" height="404" rx="44" fill="#fff"/>
    <rect x="146" y="184" width="250" height="158" rx="22" fill="#17324d"/>
    <rect x="171" y="211" width="200" height="101" rx="12" fill="#29ABE2"/>
    <path d="M137 373h282l-38 50H176z" fill="#0d4f80"/>
    <path d="M500 193h104v190H500z" fill="#f5c518"/>
    <path d="M521 164h62v65h-62z" fill="#fff4bf" stroke="#17324d" stroke-width="12"/>
    <path d="M525 383h55l-28 58z" fill="#E8312A"/>
    <circle cx="661" cy="251" r="52" fill="#dff6d7" stroke="#5CBF2A" stroke-width="14"/>
    <path d="M661 198v106M608 251h106M624 214l74 74M698 214l-74 74" stroke="#17324d" stroke-width="10" stroke-linecap="round" opacity=".72"/>
    <path d="M216 486c18-62 63-92 107-92s89 30 107 92" fill="#d9f1ff"/>
    <circle cx="323" cy="345" r="48" fill="#f3b08d"/>
    <path d="M279 489c14-52 54-76 92-76s78 24 92 76" fill="#fff4bf"/>
    <circle cx="371" cy="368" r="42" fill="#8c5a3c"/>
    <path d="M556 487c13-54 56-82 96-82s83 28 96 82" fill="#e8f7e2"/>
    <circle cx="652" cy="358" r="45" fill="#9c6a4e"/>
    <path d="M198 300h132" stroke="#fff" stroke-width="13" stroke-linecap="round"/>
    <path d="M198 266h84" stroke="#fff" stroke-width="13" stroke-linecap="round" opacity=".75"/>
  </g>
</svg>
